<?xml version="1.0" encoding="utf-8"?>
<!-- Generator: Adobe Illustrator 21.0.2, SVG Export Plug-In . SVG Version: 6.00 Build 0)  -->
<svg version="1.1" id="Layer_1" xmlns="http://www.w3.org/2000/svg" xmlns:xlink="http://www.w3.org/1999/xlink" x="0px" y="0px"
	 viewBox="0 0 168 79.1" style="enable-background:new 0 0 168 79.1;" xml:space="preserve">
<style type="text/css">
	.st0{fill:#FFFFFF;}
</style>
<g>
	<g>
		<g>
			<g>
				<path class="st0" d="M24,48C10.8,48,0,37.2,0,24S10.8,0,24,0v8C15.2,8,8,15.2,8,24s7.2,16,16,16s16-7.2,16-16h8
					C48,37.2,37.2,48,24,48z"/>
			</g>
		</g>
		<g>
			<path class="st0" d="M144,0c-13.2,0-24,10.8-24,24c0,8.8-7.2,16-16,16s-16-7.2-16-16h-8c0,13.2,10.8,24,24,24s24-10.8,24-24
				c0-8.8,7.2-16,16-16s16,7.2,16,16v24h8V24C168,10.8,157.2,0,144,0z"/>
		</g>
		<g>
			<g>
				<circle class="st0" cx="64" cy="4" r="4"/>
			</g>
		</g>
		<g>
			<g>
				<circle class="st0" cx="80" cy="12" r="4"/>
			</g>
		</g>
		<g>
			<g>
				<circle class="st0" cx="48" cy="12" r="4"/>
			</g>
		</g>
	</g>
	<g>
		<path class="st0" d="M36.2,75.2c0.2,0,0.3,0.1,0.4,0.2l1.2,1.3c-0.6,0.8-1.4,1.4-2.3,1.8c-0.9,0.4-2,0.6-3.3,0.6
			c-1.1,0-2.2-0.2-3.1-0.6s-1.7-0.9-2.3-1.6s-1.1-1.5-1.5-2.5c-0.3-1-0.5-2-0.5-3.1c0-0.8,0.1-1.5,0.2-2.2c0.2-0.7,0.4-1.3,0.7-1.9
			c0.3-0.6,0.7-1.1,1.1-1.6c0.4-0.5,0.9-0.9,1.5-1.2c0.6-0.3,1.2-0.6,1.8-0.7c0.7-0.2,1.4-0.3,2.1-0.3c0.6,0,1.1,0,1.6,0.1
			c0.5,0.1,1,0.2,1.4,0.4c0.4,0.2,0.8,0.4,1.2,0.6c0.4,0.2,0.7,0.5,1,0.8L36.6,67c-0.1,0.1-0.1,0.2-0.2,0.2
			c-0.1,0.1-0.2,0.1-0.4,0.1s-0.3-0.1-0.5-0.2c-0.2-0.1-0.4-0.3-0.6-0.4c-0.2-0.1-0.6-0.3-0.9-0.4c-0.4-0.1-0.8-0.2-1.4-0.2
			c-0.6,0-1.2,0.1-1.8,0.3c-0.5,0.2-1,0.6-1.4,1c-0.4,0.4-0.7,1-0.9,1.6c-0.2,0.6-0.3,1.4-0.3,2.2c0,0.8,0.1,1.5,0.3,2.2
			s0.5,1.2,0.9,1.6s0.9,0.8,1.4,1c0.5,0.2,1.1,0.3,1.7,0.3c0.4,0,0.7,0,1-0.1c0.3,0,0.6-0.1,0.8-0.2c0.2-0.1,0.5-0.2,0.7-0.3
			c0.2-0.1,0.4-0.3,0.7-0.5c0.1-0.1,0.2-0.1,0.2-0.2S36.1,75.2,36.2,75.2z"/>
		<path class="st0" d="M39.3,78.9V63.3h2.9v5.9c0.4-0.4,0.9-0.7,1.3-0.9c0.5-0.2,1.1-0.3,1.7-0.3c0.6,0,1.1,0.1,1.6,0.3
			c0.5,0.2,0.8,0.5,1.2,0.9c0.3,0.4,0.5,0.8,0.7,1.3s0.2,1.1,0.2,1.7v6.9H46V72c0-0.6-0.1-1.1-0.4-1.4c-0.3-0.3-0.7-0.5-1.2-0.5
			c-0.4,0-0.8,0.1-1.1,0.3c-0.4,0.2-0.7,0.4-1,0.7v7.8H39.3z"/>
		<path class="st0" d="M55.9,67.9c0.7,0,1.3,0.1,1.9,0.3c0.6,0.2,1.1,0.5,1.5,1c0.4,0.4,0.8,0.9,1,1.5s0.4,1.3,0.4,2.1
			c0,0.2,0,0.4,0,0.5c0,0.1-0.1,0.3-0.1,0.3c0,0.1-0.1,0.1-0.2,0.2s-0.2,0-0.3,0h-6.5c0.1,1,0.4,1.8,0.9,2.2
			c0.5,0.5,1.1,0.7,1.9,0.7c0.4,0,0.7,0,1-0.1c0.3-0.1,0.5-0.2,0.8-0.3c0.2-0.1,0.4-0.2,0.6-0.3C58.8,76,59,76,59.2,76
			c0.2,0,0.4,0.1,0.5,0.3l0.8,1c-0.3,0.4-0.6,0.7-1,0.9c-0.4,0.2-0.8,0.4-1.2,0.6C58,78.9,57.6,79,57.2,79c-0.4,0.1-0.8,0.1-1.2,0.1
			c-0.8,0-1.5-0.1-2.1-0.4c-0.7-0.2-1.2-0.6-1.7-1.1s-0.9-1.1-1.2-1.8c-0.3-0.7-0.4-1.6-0.4-2.5c0-0.7,0.1-1.4,0.4-2.1
			c0.2-0.7,0.6-1.2,1-1.7c0.5-0.5,1-0.9,1.7-1.1S55,67.9,55.9,67.9z M55.9,70c-0.7,0-1.2,0.2-1.6,0.6s-0.6,1-0.8,1.7H58
			c0-0.3,0-0.6-0.1-0.9c-0.1-0.3-0.2-0.5-0.4-0.7c-0.2-0.2-0.4-0.4-0.7-0.5C56.6,70,56.3,70,55.9,70z"/>
		<path class="st0" d="M70.3,70.5c-0.1,0.1-0.2,0.2-0.3,0.3s-0.2,0.1-0.4,0.1c-0.1,0-0.3,0-0.4-0.1c-0.1-0.1-0.3-0.2-0.4-0.3
			s-0.4-0.2-0.6-0.3c-0.2-0.1-0.5-0.1-0.9-0.1c-0.4,0-0.8,0.1-1.1,0.2c-0.3,0.2-0.6,0.4-0.8,0.7s-0.4,0.7-0.5,1.1s-0.2,0.9-0.2,1.4
			c0,1.1,0.2,2,0.7,2.5s1.1,0.9,1.8,0.9c0.3,0,0.5,0,0.7-0.1c0.2,0,0.4-0.1,0.5-0.2c0.1-0.1,0.3-0.1,0.4-0.2
			c0.1-0.1,0.2-0.2,0.3-0.2s0.2-0.1,0.3-0.2c0.1,0,0.2-0.1,0.3-0.1c0.2,0,0.4,0.1,0.5,0.3l0.8,1c-0.3,0.4-0.6,0.7-1,0.9
			c-0.3,0.2-0.7,0.4-1.1,0.6c-0.4,0.1-0.8,0.2-1.1,0.3c-0.4,0.1-0.8,0.1-1.1,0.1c-0.7,0-1.3-0.1-1.9-0.4c-0.6-0.2-1.1-0.6-1.6-1.1
			c-0.4-0.5-0.8-1.1-1.1-1.8c-0.3-0.7-0.4-1.5-0.4-2.4c0-0.8,0.1-1.5,0.3-2.2c0.2-0.7,0.6-1.3,1-1.8s1-0.9,1.7-1.2s1.4-0.4,2.3-0.4
			c0.8,0,1.6,0.1,2.2,0.4c0.6,0.3,1.2,0.7,1.7,1.2L70.3,70.5z"/>
		<path class="st0" d="M75.5,63.3v8.9H76c0.2,0,0.3,0,0.4-0.1c0.1-0.1,0.2-0.1,0.3-0.3l2.4-3.2c0.1-0.2,0.3-0.3,0.4-0.4
			c0.2-0.1,0.3-0.1,0.6-0.1h2.6L79.6,72c-0.2,0.3-0.5,0.6-0.9,0.8c0.2,0.1,0.3,0.2,0.4,0.4c0.1,0.1,0.2,0.3,0.3,0.5l3.3,5.2h-2.6
			c-0.2,0-0.4,0-0.6-0.1c-0.2-0.1-0.3-0.2-0.4-0.4l-2.4-4c-0.1-0.2-0.2-0.3-0.3-0.3c-0.1,0-0.3-0.1-0.5-0.1h-0.6v4.9h-2.9V63.3H75.5
			z"/>
		<path class="st0" d="M92.4,65c0,0.2,0,0.5-0.1,0.7c-0.1,0.2-0.2,0.4-0.4,0.6c-0.2,0.2-0.4,0.3-0.6,0.4s-0.5,0.1-0.7,0.1
			c-0.2,0-0.5,0-0.7-0.1c-0.2-0.1-0.4-0.2-0.6-0.4c-0.2-0.2-0.3-0.3-0.4-0.6s-0.1-0.4-0.1-0.7c0-0.2,0-0.5,0.1-0.7
			c0.1-0.2,0.2-0.4,0.4-0.6c0.2-0.2,0.3-0.3,0.6-0.4c0.2-0.1,0.4-0.1,0.7-0.1c0.3,0,0.5,0,0.7,0.1s0.4,0.2,0.6,0.4
			c0.2,0.2,0.3,0.3,0.4,0.6C92.3,64.6,92.4,64.8,92.4,65z M92,68.1v10.8h-2.9V68.1H92z"/>
		<path class="st0" d="M94.5,78.9V68.1h1.8c0.4,0,0.6,0.2,0.7,0.5l0.2,0.8c0.2-0.2,0.4-0.4,0.7-0.6c0.2-0.2,0.5-0.3,0.7-0.5
			s0.5-0.2,0.9-0.3c0.3-0.1,0.6-0.1,1-0.1c0.6,0,1.1,0.1,1.6,0.3c0.5,0.2,0.8,0.5,1.2,0.9c0.3,0.4,0.5,0.8,0.7,1.3s0.2,1.1,0.2,1.7
			v6.9h-2.9V72c0-0.6-0.1-1.1-0.4-1.4c-0.3-0.3-0.7-0.5-1.2-0.5c-0.4,0-0.8,0.1-1.1,0.3c-0.4,0.2-0.7,0.4-1,0.7v7.8H94.5z"/>
		<path class="st0" d="M120,66.6c-0.1,0.2-0.2,0.3-0.3,0.4s-0.2,0.1-0.4,0.1c-0.2,0-0.3-0.1-0.5-0.2c-0.2-0.1-0.4-0.2-0.6-0.4
			c-0.2-0.1-0.5-0.2-0.8-0.4c-0.3-0.1-0.7-0.2-1.1-0.2c-0.7,0-1.3,0.2-1.6,0.5c-0.4,0.3-0.5,0.8-0.5,1.3c0,0.3,0.1,0.6,0.3,0.8
			c0.2,0.2,0.5,0.4,0.8,0.6c0.3,0.2,0.7,0.3,1.1,0.4s0.8,0.3,1.3,0.4c0.4,0.2,0.9,0.3,1.3,0.5s0.8,0.5,1.1,0.8
			c0.3,0.3,0.6,0.7,0.8,1.1c0.2,0.4,0.3,1,0.3,1.6c0,0.7-0.1,1.3-0.4,1.9s-0.6,1.1-1,1.6s-1,0.8-1.7,1.1c-0.7,0.3-1.4,0.4-2.3,0.4
			c-0.5,0-1,0-1.4-0.1c-0.5-0.1-0.9-0.2-1.4-0.4s-0.9-0.4-1.3-0.6c-0.4-0.2-0.7-0.5-1-0.8l0.9-1.5c0.1-0.1,0.2-0.2,0.3-0.3
			c0.1-0.1,0.3-0.1,0.4-0.1c0.2,0,0.4,0.1,0.6,0.2s0.5,0.3,0.7,0.5c0.3,0.2,0.6,0.3,1,0.5s0.8,0.2,1.3,0.2c0.7,0,1.3-0.2,1.7-0.5
			s0.6-0.8,0.6-1.5c0-0.4-0.1-0.7-0.3-0.9c-0.2-0.2-0.5-0.4-0.8-0.6c-0.3-0.2-0.7-0.3-1.1-0.4s-0.8-0.2-1.3-0.4
			c-0.4-0.1-0.9-0.3-1.3-0.5c-0.4-0.2-0.8-0.5-1.1-0.8s-0.6-0.7-0.8-1.2c-0.2-0.5-0.3-1.1-0.3-1.8c0-0.6,0.1-1.1,0.3-1.6
			c0.2-0.5,0.6-1,1-1.4c0.4-0.4,1-0.7,1.6-1c0.6-0.3,1.4-0.4,2.2-0.4c0.9,0,1.8,0.1,2.5,0.4c0.8,0.3,1.4,0.7,2,1.2L120,66.6z"/>
		<path class="st0" d="M127.7,67.9c0.7,0,1.3,0.1,1.9,0.3c0.6,0.2,1.1,0.5,1.5,1c0.4,0.4,0.8,0.9,1,1.5s0.4,1.3,0.4,2.1
			c0,0.2,0,0.4,0,0.5c0,0.1-0.1,0.3-0.1,0.3c0,0.1-0.1,0.1-0.2,0.2s-0.2,0-0.3,0h-6.5c0.1,1,0.4,1.8,0.9,2.2
			c0.5,0.5,1.1,0.7,1.9,0.7c0.4,0,0.7,0,1-0.1c0.3-0.1,0.5-0.2,0.8-0.3c0.2-0.1,0.4-0.2,0.6-0.3c0.2-0.1,0.4-0.1,0.5-0.1
			c0.2,0,0.4,0.1,0.5,0.3l0.8,1c-0.3,0.4-0.6,0.7-1,0.9c-0.4,0.2-0.8,0.4-1.2,0.6c-0.4,0.1-0.8,0.2-1.2,0.3
			c-0.4,0.1-0.8,0.1-1.2,0.1c-0.8,0-1.5-0.1-2.1-0.4c-0.7-0.2-1.2-0.6-1.7-1.1s-0.9-1.1-1.2-1.8c-0.3-0.7-0.4-1.6-0.4-2.5
			c0-0.7,0.1-1.4,0.4-2.1c0.2-0.7,0.6-1.2,1-1.7c0.5-0.5,1-0.9,1.7-1.1S126.8,67.9,127.7,67.9z M127.7,70c-0.7,0-1.2,0.2-1.6,0.6
			s-0.6,1-0.8,1.7h4.5c0-0.3,0-0.6-0.1-0.9c-0.1-0.3-0.2-0.5-0.4-0.7c-0.2-0.2-0.4-0.4-0.7-0.5C128.4,70,128.1,70,127.7,70z"/>
		<path class="st0" d="M141.4,78.9c-0.3,0-0.5,0-0.6-0.1s-0.3-0.2-0.4-0.5l-0.2-0.7c-0.3,0.2-0.5,0.4-0.8,0.6
			c-0.3,0.2-0.5,0.3-0.8,0.5c-0.3,0.1-0.6,0.2-0.9,0.3c-0.3,0.1-0.7,0.1-1,0.1c-0.5,0-0.9-0.1-1.3-0.2c-0.4-0.1-0.7-0.3-1-0.6
			c-0.3-0.2-0.5-0.6-0.7-0.9s-0.2-0.8-0.2-1.3c0-0.4,0.1-0.8,0.3-1.2s0.6-0.8,1-1.1c0.5-0.3,1.2-0.6,2-0.8c0.8-0.2,1.9-0.3,3.1-0.4
			v-0.6c0-0.7-0.1-1.2-0.4-1.5c-0.3-0.3-0.7-0.5-1.2-0.5c-0.4,0-0.7,0-1,0.1c-0.3,0.1-0.5,0.2-0.7,0.3c-0.2,0.1-0.4,0.2-0.6,0.3
			s-0.4,0.1-0.6,0.1c-0.2,0-0.4-0.1-0.5-0.2c-0.1-0.1-0.3-0.2-0.3-0.4l-0.5-0.9c0.6-0.6,1.3-1,2.1-1.3c0.8-0.3,1.6-0.4,2.5-0.4
			c0.6,0,1.2,0.1,1.7,0.3s0.9,0.5,1.3,0.9c0.4,0.4,0.6,0.8,0.8,1.3c0.2,0.5,0.3,1.1,0.3,1.7v6.8H141.4z M137.6,77.1
			c0.5,0,0.9-0.1,1.2-0.3c0.4-0.2,0.7-0.4,1.1-0.8v-1.7c-0.7,0-1.3,0.1-1.8,0.2c-0.5,0.1-0.8,0.2-1.1,0.3c-0.3,0.1-0.5,0.3-0.6,0.5
			c-0.1,0.2-0.2,0.4-0.2,0.6c0,0.4,0.1,0.7,0.4,0.9C136.8,77.1,137.1,77.1,137.6,77.1z"/>
	</g>
</g>
</svg>
